<svg width="39" height="37" viewBox="0 0 39 37" fill="none" xmlns="http://www.w3.org/2000/svg">
<path d="M38.2115 33.2766C38.7215 33.0647 38.9633 32.4795 38.7514 31.9695L35.2988 23.658C35.087 23.148 34.5017 22.9063 33.9917 23.1182C33.4817 23.33 33.24 23.9152 33.4518 24.4253L36.5208 31.8132L29.1328 34.8822C28.6228 35.094 28.3811 35.6792 28.593 36.1893C28.8048 36.6993 29.39 36.941 29.9001 36.7291L38.2115 33.2766ZM1.5 0.999996L0.583843 1.40081C4.05947 9.34511 6.14307 14.4768 10.9928 19.023C15.8131 23.5414 23.3096 27.4386 37.4461 33.2774L37.8279 32.3531L38.2096 31.4288C24.0469 25.5792 16.8795 21.7998 12.3606 17.5638C7.87125 13.3555 5.94053 8.65488 2.41616 0.599177L1.5 0.999996Z" fill="#4B4B4B"/>
</svg>
