<svg width="51" height="50" viewBox="0 0 51 50" fill="none" xmlns="http://www.w3.org/2000/svg">
<path fill-rule="evenodd" clip-rule="evenodd" d="M1.69165 3.91971H19.1813V1.52996C19.1813 0.688482 19.9526 0 20.8984 0H30.5545C31.4998 0 32.2716 0.688075 32.2716 1.52996V3.92012H49.548C50.1385 3.92012 50.6198 4.35021 50.6198 4.87593V9.56103H0.619812V4.87553C0.619812 4.34981 1.10161 3.91971 1.69165 3.91971ZM4.58839 12.0464H47.0239C47.9085 12.0464 48.7118 12.697 48.6319 13.4803L45.0405 48.5673C44.961 49.351 44.3144 50 43.4316 50H8.12997C7.24675 50 6.59917 49.3522 6.52062 48.5673L2.97904 13.4803C2.90049 12.6942 3.70288 12.0464 4.58839 12.0464ZM32.1661 17.4961H36.6718V44.0726H32.1661V17.4961ZM14.3532 17.4961H18.8593V44.0726H14.3532V17.4961ZM23.2585 17.4961H27.7655V44.0726H23.2585V17.4961Z" fill="#FF0000"/>
</svg>
