<svg width="800" height="800" viewBox="0 0 800 800" fill="none" xmlns="http://www.w3.org/2000/svg">
<path d="M78.952 160.256H271.581M271.581 160.256V101.884C271.581 76.5542 292.115 56.02 317.445 56.02H482.555C507.886 56.02 528.419 76.5542 528.419 101.884V160.256M271.581 160.256H528.419M721.048 160.256H528.419M143.162 243.646V577.2C143.162 655.82 143.162 695.13 168.237 719.557C193.313 743.98 233.671 743.98 314.386 743.98H485.614C566.33 743.98 606.686 743.98 631.765 719.557C656.838 695.13 656.838 655.82 656.838 577.2V243.646M271.581 327.035V577.2M400 327.035V577.2M528.419 327.035V577.2" stroke="#464455" stroke-width="45.864" stroke-linecap="round" stroke-linejoin="round"/>
</svg>
