<svg width="800" height="800" viewBox="0 0 800 800" fill="none" xmlns="http://www.w3.org/2000/svg">
<path d="M448.529 49.6922C462.015 49.6923 472.947 60.6253 472.947 74.1111C472.947 87.5968 462.014 98.529 448.529 98.5291H399.692C322.262 98.5291 266.645 98.5808 224.32 104.271C182.698 109.867 157.604 120.51 139.057 139.057C120.51 157.604 109.867 182.698 104.271 224.32C98.5808 266.645 98.5291 322.262 98.5291 399.692C98.5291 477.122 98.5808 532.738 104.271 575.063C109.867 616.686 120.51 641.779 139.057 660.327C157.604 678.875 182.698 689.519 224.32 695.112C266.645 700.803 322.262 700.855 399.692 700.855C477.121 700.855 532.737 700.803 575.062 695.112C616.684 689.519 641.778 678.875 660.326 660.327C678.874 641.779 689.518 616.686 695.111 575.063C700.802 532.738 700.854 477.122 700.854 399.692V350.855C700.854 337.37 711.788 326.436 725.273 326.436C738.759 326.437 749.691 337.37 749.691 350.855V401.561C749.691 476.718 749.692 535.616 743.515 581.572C737.189 628.609 723.993 665.728 694.86 694.861C665.727 723.994 628.608 737.19 581.571 743.516C535.615 749.693 476.717 749.692 401.56 749.692H397.823C322.667 749.692 263.767 749.693 217.812 743.516C170.775 737.19 133.657 723.994 104.524 694.861C75.3911 665.728 62.194 628.609 55.8699 581.572C49.6914 535.616 49.6919 476.718 49.6922 401.561V397.823C49.6919 322.667 49.6914 263.768 55.8699 217.813C62.194 170.775 75.3909 133.658 104.524 104.524C133.657 75.391 170.775 62.194 217.812 55.8699C263.767 49.6914 322.667 49.6919 397.823 49.6922H448.529ZM555.011 83.0945C599.547 38.5586 671.754 38.5586 716.29 83.0945C760.826 127.63 760.826 199.837 716.29 244.373L499.841 460.823C487.752 472.912 480.179 480.485 471.73 487.078C461.777 494.84 451.006 501.495 439.611 506.926C429.938 511.536 419.777 514.922 403.559 520.327L308.993 551.849C291.534 557.667 272.285 553.126 259.272 540.112C246.259 527.099 241.715 507.85 247.535 490.389L279.056 395.824C284.462 379.607 287.848 369.445 292.459 359.772C297.889 348.377 304.544 337.607 312.307 327.655C318.898 319.205 326.472 311.632 338.56 299.544L555.011 83.0945ZM374.215 332.957C360.654 346.518 355.334 351.897 350.815 357.689C345.235 364.845 340.449 372.591 336.546 380.782C333.383 387.417 330.951 394.577 324.887 412.77L310.825 454.957L344.428 488.559L386.613 474.498C404.806 468.432 411.966 466 418.601 462.839C426.793 458.935 434.539 454.149 441.695 448.568C447.487 444.049 452.866 438.729 466.427 425.169L631.02 260.574C614.224 253.349 594.656 241.767 576.134 223.248C557.615 204.729 546.034 185.161 538.809 168.362L374.215 332.957ZM681.756 117.628C656.292 92.164 615.008 92.164 589.545 117.628L577.283 129.889C578.022 133.01 579.054 136.729 580.493 140.877C585.159 154.325 593.989 172.036 610.669 188.715C627.348 205.393 645.059 214.224 658.506 218.889C662.653 220.328 666.372 221.362 669.494 222.101L681.756 209.84C707.219 184.376 707.219 143.091 681.756 117.628Z" fill="#464455"/>
<path d="M448.529 49.6922C462.015 49.6923 472.947 60.6253 472.947 74.1111C472.947 87.5968 462.014 98.529 448.529 98.5291H399.692C322.262 98.5291 266.645 98.5808 224.32 104.271C182.698 109.867 157.604 120.51 139.057 139.057C120.51 157.604 109.867 182.698 104.271 224.32C98.5808 266.645 98.5291 322.262 98.5291 399.692C98.5291 477.122 98.5808 532.738 104.271 575.063C109.867 616.686 120.51 641.779 139.057 660.327C157.604 678.875 182.698 689.519 224.32 695.112C266.645 700.803 322.262 700.855 399.692 700.855C477.121 700.855 532.737 700.803 575.062 695.112C616.684 689.519 641.778 678.875 660.326 660.327C678.874 641.779 689.518 616.686 695.111 575.063C700.802 532.738 700.854 477.122 700.854 399.692V350.855C700.854 337.37 711.788 326.436 725.273 326.436C738.759 326.437 749.691 337.37 749.691 350.855V401.561C749.691 476.718 749.692 535.616 743.515 581.572C737.189 628.609 723.993 665.728 694.86 694.861C665.727 723.994 628.608 737.19 581.571 743.516C535.615 749.693 476.717 749.692 401.56 749.692H397.823C322.667 749.692 263.767 749.693 217.812 743.516C170.775 737.19 133.657 723.994 104.524 694.861C75.3911 665.728 62.194 628.609 55.8699 581.572C49.6914 535.616 49.6919 476.718 49.6922 401.561V397.823C49.6919 322.667 49.6914 263.768 55.8699 217.813C62.194 170.775 75.3909 133.658 104.524 104.524C133.657 75.391 170.775 62.194 217.812 55.8699C263.767 49.6914 322.667 49.6919 397.823 49.6922H448.529ZM555.011 83.0945C599.547 38.5586 671.754 38.5586 716.29 83.0945C760.826 127.63 760.826 199.837 716.29 244.373L499.841 460.823C487.752 472.912 480.179 480.485 471.73 487.078C461.777 494.84 451.006 501.495 439.611 506.926C429.938 511.536 419.777 514.922 403.559 520.327L308.993 551.849C291.534 557.667 272.285 553.126 259.272 540.112C246.259 527.099 241.715 507.85 247.535 490.389L279.056 395.824C284.462 379.607 287.848 369.445 292.459 359.772C297.889 348.377 304.544 337.607 312.307 327.655C318.898 319.205 326.472 311.632 338.56 299.544L555.011 83.0945ZM374.215 332.957C360.654 346.518 355.334 351.897 350.815 357.689C345.235 364.845 340.449 372.591 336.546 380.782C333.383 387.417 330.951 394.577 324.887 412.77L310.825 454.957L344.428 488.559L386.613 474.498C404.806 468.432 411.966 466 418.601 462.839C426.793 458.935 434.539 454.149 441.695 448.568C447.487 444.049 452.866 438.729 466.427 425.169L631.02 260.574C614.224 253.349 594.656 241.767 576.134 223.248C557.615 204.729 546.034 185.161 538.809 168.362L374.215 332.957ZM681.756 117.628C656.292 92.164 615.008 92.164 589.545 117.628L577.283 129.889C578.022 133.01 579.054 136.729 580.493 140.877C585.159 154.325 593.989 172.036 610.669 188.715C627.348 205.393 645.059 214.224 658.506 218.889C662.653 220.328 666.372 221.362 669.494 222.101L681.756 209.84C707.219 184.376 707.219 143.091 681.756 117.628Z" stroke="black"/>
</svg>
