<svg width="800" height="800" viewBox="0 0 800 800" fill="none" xmlns="http://www.w3.org/2000/svg">
<path d="M63.99 701.216C54.6633 710.554 54.671 725.685 64.0072 735.01C73.3434 744.336 88.473 744.329 97.7997 734.994L63.99 701.216ZM246.051 586.591C255.378 577.256 255.37 562.126 246.034 552.797C236.698 543.472 221.568 543.478 212.242 552.816L246.051 586.591ZM509.69 191.788L607.889 290.09L641.699 256.314L543.501 158.013L509.69 191.788ZM312.484 619.304L181.326 488.016L147.517 521.791L278.673 653.082L312.484 619.304ZM568.453 472.536L507.372 495.485L524.18 540.222L585.259 517.273L568.453 472.536ZM305.074 292.451L327.199 232.064L282.326 215.622L260.202 276.01L305.074 292.451ZM209.748 380.279C232.415 374.028 249.663 369.638 263.767 359.485L235.844 320.7C230.335 324.667 223.182 327.003 197.046 334.208L209.748 380.279ZM260.202 276.01C250.868 301.484 247.948 308.436 243.539 313.609L279.912 344.606C291.183 331.382 296.978 314.548 305.074 292.451L260.202 276.01ZM263.767 359.485C269.727 355.193 275.148 350.197 279.912 344.606L243.539 313.609C241.268 316.275 238.684 318.656 235.844 320.7L263.767 359.485ZM507.372 495.485C485.42 503.733 468.681 509.65 455.567 521.005L486.854 557.134C491.977 552.695 498.871 549.732 524.18 540.222L507.372 495.485ZM466.517 603.413C473.695 577.326 476.024 570.177 479.981 564.662L441.15 536.804C431.042 550.895 426.667 568.106 420.438 590.736L466.517 603.413ZM455.567 521.005C450.16 525.688 445.321 530.989 441.15 536.804L479.981 564.662C481.969 561.89 484.276 559.364 486.854 557.134L455.567 521.005ZM181.326 488.016C160.74 467.409 146.781 453.382 137.722 442.001C128.632 430.58 127.694 425.635 127.679 423.418L79.8906 423.72C80.0075 442.269 89.2189 457.801 100.33 471.762C111.473 485.761 127.766 502.019 147.517 521.791L181.326 488.016ZM197.046 334.208C170.118 341.633 147.927 347.712 131.328 354.377C114.775 361.02 99.0919 369.979 89.8325 386.056L131.246 409.906C132.349 407.991 135.596 404.159 149.132 398.726C162.622 393.31 181.679 388.018 209.748 380.279L197.046 334.208ZM127.679 423.418C127.65 418.673 128.881 414.013 131.246 409.906L89.8325 386.056C83.2378 397.506 79.8072 410.505 79.8906 423.72L127.679 423.418ZM278.673 653.082C298.55 672.979 314.894 689.39 328.971 700.602C343.006 711.782 358.646 721.043 377.322 721.072L377.396 673.282C375.181 673.278 370.227 672.367 358.745 663.22C347.301 654.105 333.201 640.045 312.484 619.304L278.673 653.082ZM420.438 590.736C412.662 619.012 407.338 638.214 401.886 651.799C396.413 665.431 392.552 668.681 390.621 669.784L414.309 711.29C430.526 702.035 439.551 686.258 446.235 669.598C452.942 652.895 459.052 630.542 466.517 603.413L420.438 590.736ZM377.322 721.072C390.292 721.091 403.043 717.72 414.309 711.29L390.621 669.784C386.59 672.083 382.031 673.288 377.396 673.282L377.322 721.072ZM607.889 290.09C641.772 324.005 665.215 347.559 679.597 366.971C693.729 386.042 695.354 396.19 693.628 404.171L740.337 414.271C746.388 386.298 735.239 361.791 717.994 338.517C701 315.585 674.46 289.107 641.699 256.314L607.889 290.09ZM585.259 517.273C628.634 500.977 663.74 487.854 688.689 474.008C714.008 459.954 734.287 442.25 740.337 414.271L693.628 404.171C691.903 412.149 686.236 420.709 665.495 432.221C644.385 443.939 613.312 455.682 568.453 472.536L585.259 517.273ZM543.501 158.013C510.497 124.976 483.862 98.2248 460.811 81.1112C437.432 63.7562 412.796 52.5246 384.701 58.723L394.995 105.391C402.954 103.635 413.121 105.227 432.322 119.482C451.849 133.98 475.563 157.627 509.69 191.788L543.501 158.013ZM327.199 232.064C343.819 186.706 355.403 155.27 367.035 133.896C378.473 112.876 387.037 107.147 394.995 105.391L384.701 58.723C356.61 64.9203 338.976 85.4741 325.057 111.053C311.33 136.278 298.398 171.758 282.326 215.622L327.199 232.064ZM97.7997 734.994L246.051 586.591L212.242 552.816L63.99 701.216L97.7997 734.994Z" fill="#464455"/>
</svg>
