<svg width="800" height="800" viewBox="0 0 800 800" fill="none" xmlns="http://www.w3.org/2000/svg">
<g clip-path="url(#clip0_13_11)">
<path d="M380.662 750.702C380.647 763.389 390.919 773.686 403.603 773.701C416.288 773.716 426.586 763.446 426.603 750.762L380.662 750.702ZM426.857 549.12C426.874 536.435 416.603 526.138 403.916 526.12C391.231 526.105 380.934 536.375 380.919 549.062L426.857 549.12ZM338.498 101.406L472.062 101.712L472.167 55.7737L338.603 55.4669L338.498 101.406ZM494.289 526.32L315.901 525.914L315.795 571.853L494.186 572.261L494.289 526.32ZM403.916 257.598L403.916 305.883L584.781 328.832L610.8 271.763L403.916 257.598ZM403.916 305.883L403.916 257.598L199.851 271.904L225.759 328.036L403.916 305.883ZM403.916 433.618C415.109 413.982 401.202 431.07 403.916 414.586L239.497 374.993C238.437 381.433 235.151 387.877 222.244 410.516L403.916 433.618ZM225.759 328.036C236.688 351.715 239.418 358.43 239.925 364.944L431.445 358.41C430.148 341.759 413.396 326.423 403.916 305.883L225.759 328.036ZM403.916 414.586C405.063 407.62 431.995 365.45 431.445 358.41L239.925 364.944C240.187 368.3 240.043 371.674 239.497 374.993L403.916 414.586ZM403.916 305.883C394.565 326.394 432.67 341.781 431.445 358.41L570.838 365.674C571.316 359.176 574 352.48 584.781 328.832L403.916 305.883ZM588.392 410.985C575.58 388.352 572.315 381.903 571.267 375.463L404.537 384.39C407.215 400.844 378.528 423.096 389.641 442.732L588.392 410.985ZM431.445 358.41C430.942 365.268 403.432 377.601 404.537 384.39L571.267 375.463C570.74 372.227 570.597 368.941 570.838 365.674L431.445 358.41ZM315.901 525.914C287.901 525.85 440.747 527.769 426.857 526.167C412.918 524.557 407.234 521.41 405.72 519.909L203.204 550.959C215.87 563.51 232.68 567.836 249.719 569.803C266.805 571.775 288.93 571.791 315.795 571.853L315.901 525.914ZM222.244 410.516C208.945 433.843 197.959 453.039 191.179 468.84C184.415 484.595 179.815 501.337 184.418 518.566L403.916 504.749C404.265 410.516 398.385 468.938 403.916 456.054C406.25 450.618 403.488 463.864 403.916 433.618L222.244 410.516ZM405.72 519.909C403.916 504.749 405.092 509.15 403.916 504.749L184.418 518.566C187.697 530.838 194.181 542.017 203.204 550.959L405.72 519.909ZM494.186 572.261C521.221 572.322 543.485 572.407 560.677 570.49C577.82 568.58 594.753 564.274 607.49 551.622L389.641 511.64C388.131 513.14 394.944 531.21 380.919 532.772C366.942 534.33 522.469 526.386 494.289 526.32L494.186 572.261ZM389.641 442.732C403.531 467.262 375.413 461.951 380.919 474.901C386.442 487.897 390.208 496.717 389.641 498.777L626.038 519.866C630.801 502.561 626.242 485.693 619.49 469.814C612.722 453.89 601.717 434.523 588.392 410.985L389.641 442.732ZM607.49 551.622C616.335 542.834 622.73 531.888 626.038 519.866L389.641 498.777C388.458 503.078 392.802 508.499 389.641 511.64L607.49 551.622ZM472.062 101.712C518.146 101.817 382.316 98.0988 405.28 101.559C398.369 116.566 399.677 120.526 403.916 127.132L646.508 96.4028C631.647 73.2501 607.428 64.1269 579.894 59.9807C552.763 55.8964 516.726 55.8744 472.167 55.7737L472.062 101.712ZM610.8 271.763C629.277 231.236 644.278 198.48 651.872 172.123C659.577 145.375 661.372 119.56 646.508 96.4028L403.916 127.132C402.045 135.401 402.963 136.779 403.916 159.407C397.492 181.709 399.288 213.037 403.916 257.598L610.8 271.763ZM338.603 55.4669C293.714 55.3647 257.426 55.2209 230.118 59.208C202.424 63.2533 178.027 72.3221 163.102 95.6049C163.102 95.6049 400.207 116.106 403.916 127.132C403.916 118.403 403.916 121.219 405.28 101.559C428.413 98.1815 292.08 101.301 338.498 101.406L338.603 55.4669ZM403.916 257.598C403.916 209.362 403.916 189.149 403.916 159.407C403.916 138.157 405.28 134.941 403.916 127.132C400.207 116.106 163.102 95.6049 163.102 95.6049C148.18 118.885 150.118 144.846 157.996 171.707C165.765 198.197 181.032 231.131 199.851 271.904L403.916 257.598ZM426.603 750.762L426.857 549.12L380.919 549.062L380.662 750.702L426.603 750.762Z" fill="#464455"/>
<path d="M380.662 750.702C380.647 763.389 390.919 773.686 403.603 773.701C416.288 773.716 426.586 763.446 426.603 750.762L380.662 750.702ZM426.857 549.12C426.874 536.435 416.603 526.138 403.916 526.12C391.231 526.105 380.934 536.375 380.919 549.062L426.857 549.12ZM338.498 101.406L472.062 101.712L472.167 55.7737L338.603 55.4669L338.498 101.406ZM494.289 526.32L315.901 525.914L315.795 571.853L494.186 572.261L494.289 526.32ZM403.916 257.598L403.916 305.883L584.781 328.832L610.8 271.763L403.916 257.598ZM403.916 305.883L403.916 257.598L199.851 271.904L225.759 328.036L403.916 305.883ZM403.916 433.618C415.109 413.982 401.202 431.07 403.916 414.586L239.497 374.993C238.437 381.433 235.151 387.877 222.244 410.516L403.916 433.618ZM225.759 328.036C236.688 351.715 239.418 358.43 239.925 364.944L431.445 358.41C430.148 341.759 413.396 326.423 403.916 305.883L225.759 328.036ZM403.916 414.586C405.063 407.62 431.995 365.45 431.445 358.41L239.925 364.944C240.187 368.3 240.043 371.674 239.497 374.993L403.916 414.586ZM403.916 305.883C394.565 326.394 432.67 341.781 431.445 358.41L570.838 365.674C571.316 359.176 574 352.48 584.781 328.832L403.916 305.883ZM588.392 410.985C575.58 388.352 572.315 381.903 571.267 375.463L404.537 384.39C407.215 400.844 378.528 423.096 389.641 442.732L588.392 410.985ZM431.445 358.41C430.942 365.268 403.432 377.601 404.537 384.39L571.267 375.463C570.74 372.227 570.597 368.941 570.838 365.674L431.445 358.41ZM315.901 525.914C287.901 525.85 440.747 527.769 426.857 526.167C412.918 524.557 407.234 521.41 405.72 519.909L203.204 550.959C215.87 563.51 232.68 567.836 249.719 569.803C266.805 571.775 288.93 571.791 315.795 571.853L315.901 525.914ZM222.244 410.516C208.945 433.843 197.959 453.039 191.179 468.84C184.415 484.595 179.815 501.337 184.418 518.566L403.916 504.749C404.265 410.516 398.385 468.938 403.916 456.054C406.25 450.618 403.488 463.864 403.916 433.618L222.244 410.516ZM405.72 519.909C403.916 504.749 405.092 509.15 403.916 504.749L184.418 518.566C187.697 530.838 194.181 542.017 203.204 550.959L405.72 519.909ZM494.186 572.261C521.221 572.322 543.485 572.407 560.677 570.49C577.82 568.58 594.753 564.274 607.49 551.622L389.641 511.64C388.131 513.14 394.944 531.21 380.919 532.772C366.942 534.33 522.469 526.386 494.289 526.32L494.186 572.261ZM389.641 442.732C403.531 467.262 375.413 461.951 380.919 474.901C386.442 487.897 390.208 496.717 389.641 498.777L626.038 519.866C630.801 502.561 626.242 485.693 619.49 469.814C612.722 453.89 601.717 434.523 588.392 410.985L389.641 442.732ZM607.49 551.622C616.335 542.834 622.73 531.888 626.038 519.866L389.641 498.777C388.458 503.078 392.802 508.499 389.641 511.64L607.49 551.622ZM472.062 101.712C518.146 101.817 382.316 98.0988 405.28 101.559C398.369 116.566 399.677 120.526 403.916 127.132L646.508 96.4028C631.647 73.2501 607.428 64.1269 579.894 59.9807C552.763 55.8964 516.726 55.8744 472.167 55.7737L472.062 101.712ZM610.8 271.763C629.277 231.236 644.278 198.48 651.872 172.123C659.577 145.375 661.372 119.56 646.508 96.4028L403.916 127.132C402.045 135.401 402.963 136.779 403.916 159.407C397.492 181.709 399.288 213.037 403.916 257.598L610.8 271.763ZM338.603 55.4669C293.714 55.3647 257.426 55.2209 230.118 59.208C202.424 63.2533 178.027 72.3221 163.102 95.6049C163.102 95.6049 400.207 116.106 403.916 127.132C403.916 118.403 403.916 121.219 405.28 101.559C428.413 98.1815 292.08 101.301 338.498 101.406L338.603 55.4669ZM403.916 257.598C403.916 209.362 403.916 189.149 403.916 159.407C403.916 138.157 405.28 134.941 403.916 127.132C400.207 116.106 163.102 95.6049 163.102 95.6049C148.18 118.885 150.118 144.846 157.996 171.707C165.765 198.197 181.032 231.131 199.851 271.904L403.916 257.598ZM426.603 750.762L426.857 549.12L380.919 549.062L380.662 750.702L426.603 750.762Z" fill="#464455" fill-opacity="0.2"/>
</g>
<defs>
<clipPath id="clip0_13_11">
<rect width="800" height="800" fill="white"/>
</clipPath>
</defs>
</svg>
